<svg width="21" height="14" viewBox="0 0 21 14" fill="none" xmlns="http://www.w3.org/2000/svg">
<path d="M0.5 2.66667C0.5 1.47161 1.49653 0.5 2.72222 0.5H11.6111C12.8368 0.5 13.8333 1.47161 13.8333 2.66667V11.3333C13.8333 12.5284 12.8368 13.5 11.6111 13.5H2.72222C1.49653 13.5 0.5 12.5284 0.5 11.3333V2.66667ZM19.9132 1.71198C20.2743 1.90156 20.5 2.26719 20.5 2.66667V11.3333C20.5 11.7328 20.2743 12.0984 19.9132 12.288C19.5521 12.4776 19.1146 12.4573 18.7708 12.2339L15.4375 10.0672L14.9444 9.74557V9.16667V4.83333V4.25443L15.4375 3.93281L18.7708 1.76615C19.1111 1.54609 19.5486 1.5224 19.9132 1.71198Z" fill="#2CA58D"/>
</svg>
