<svg width="16" height="17" viewBox="0 0 16 17" fill="none" xmlns="http://www.w3.org/2000/svg">
<path d="M9.79375 1.52815C10.6062 1.69065 11.1344 2.48128 10.9719 3.29378L10.9 3.65003C10.7344 4.4844 10.4281 5.27815 10 6.00003H14.5C15.3281 6.00003 16 6.6719 16 7.50003C16 8.07815 15.6719 8.58128 15.1906 8.83128C15.5312 9.10628 15.75 9.52815 15.75 10C15.75 10.7313 15.225 11.3407 14.5344 11.4719C14.6719 11.7 14.75 11.9657 14.75 12.25C14.75 12.9157 14.3156 13.4813 13.7156 13.675C13.7375 13.7782 13.75 13.8875 13.75 14C13.75 14.8282 13.0781 15.5 12.25 15.5H9.20312C8.60938 15.5 8.03125 15.325 7.5375 14.9969L6.33437 14.1938C5.5 13.6375 5 12.7 5 11.6969V10.5V9.00003V8.2219C5 7.3094 5.41563 6.45003 6.125 5.87815L6.35625 5.69378C7.18437 5.03128 7.75 4.10003 7.95625 3.06253L8.02812 2.70628C8.19063 1.89378 8.98125 1.36565 9.79375 1.52815ZM1 6.50003H3C3.55312 6.50003 4 6.9469 4 7.50003V14.5C4 15.0532 3.55312 15.5 3 15.5H1C0.446875 15.5 0 15.0532 0 14.5V7.50003C0 6.9469 0.446875 6.50003 1 6.50003Z" fill="#2CA58D"/>
</svg>
