<svg width="21" height="18" viewBox="0 0 21 18" fill="none" xmlns="http://www.w3.org/2000/svg">
<path d="M4.725 0C5.42119 0 6.08887 0.296316 6.58116 0.823762C7.07344 1.35121 7.35 2.06658 7.35 2.8125C7.35 3.55842 7.07344 4.27379 6.58116 4.80124C6.08887 5.32868 5.42119 5.625 4.725 5.625C4.02881 5.625 3.36113 5.32868 2.86884 4.80124C2.37656 4.27379 2.1 3.55842 2.1 2.8125C2.1 2.06658 2.37656 1.35121 2.86884 0.823762C3.36113 0.296316 4.02881 0 4.725 0ZM16.8 0C17.4962 0 18.1639 0.296316 18.6562 0.823762C19.1484 1.35121 19.425 2.06658 19.425 2.8125C19.425 3.55842 19.1484 4.27379 18.6562 4.80124C18.1639 5.32868 17.4962 5.625 16.8 5.625C16.1038 5.625 15.4361 5.32868 14.9438 4.80124C14.4516 4.27379 14.175 3.55842 14.175 2.8125C14.175 2.06658 14.4516 1.35121 14.9438 0.823762C15.4361 0.296316 16.1038 0 16.8 0ZM0 10.5012C0 8.43047 1.56844 6.75 3.50109 6.75H4.90219C5.42391 6.75 5.91937 6.87305 6.36562 7.09102C6.32297 7.34414 6.30328 7.60781 6.30328 7.875C6.30328 9.21797 6.85453 10.4238 7.72406 11.25C7.7175 11.25 7.71094 11.25 7.70109 11.25H0.698906C0.315 11.25 0 10.9125 0 10.5012ZM13.2989 11.25C13.2923 11.25 13.2858 11.25 13.2759 11.25C14.1488 10.4238 14.6967 9.21797 14.6967 7.875C14.6967 7.60781 14.6737 7.34766 14.6344 7.09102C15.0806 6.86953 15.5761 6.75 16.0978 6.75H17.4989C19.4316 6.75 21 8.43047 21 10.5012C21 10.916 20.685 11.25 20.3011 11.25H13.2989ZM7.35 7.875C7.35 6.97989 7.68187 6.12145 8.27261 5.48851C8.86335 4.85558 9.66457 4.5 10.5 4.5C11.3354 4.5 12.1366 4.85558 12.7274 5.48851C13.3181 6.12145 13.65 6.97989 13.65 7.875C13.65 8.77011 13.3181 9.62855 12.7274 10.2615C12.1366 10.8944 11.3354 11.25 10.5 11.25C9.66457 11.25 8.86335 10.8944 8.27261 10.2615C7.68187 9.62855 7.35 8.77011 7.35 7.875ZM4.2 17.0613C4.2 14.4738 6.15891 12.375 8.5739 12.375H12.4261C14.8411 12.375 16.8 14.4738 16.8 17.0613C16.8 17.5781 16.4095 18 15.9239 18H5.07609C4.59375 18 4.2 17.5816 4.2 17.0613Z" fill="#2CA58D"/>
</svg>
