<svg width="21" height="20" viewBox="0 0 21 20" fill="none" xmlns="http://www.w3.org/2000/svg">
<path d="M20.4827 9.73804C20.4827 4.52973 16.13 0.344727 10.7863 0.344727C5.41003 0.344727 1.09002 4.56135 1.09002 9.73804C1.09002 11.4745 1.57002 13.0863 2.43377 14.4813L0.611273 18.263C0.227529 19.0998 1.09127 19.9365 1.95502 19.5648L5.8587 17.8283C7.2987 18.665 8.96244 19.13 10.755 19.13C16.1313 19.1313 20.4827 14.9147 20.4827 9.73804ZM10.9476 15.9077C10.2114 15.9077 9.60388 15.3192 9.60388 14.6059C9.60388 13.8927 10.2114 13.3042 10.9476 13.3042C11.6839 13.3042 12.2914 13.8927 12.2914 14.6059C12.2914 15.3179 11.6826 15.9077 10.9476 15.9077ZM14.179 9.30435C13.6665 9.9861 13.1227 10.3276 12.739 10.6061C12.2915 10.9161 12.099 11.0396 12.0665 11.7226C12.034 12.0326 11.7465 12.2808 11.4265 12.2808H10.4665C10.114 12.2808 9.82647 11.9708 9.85898 11.6293C9.98649 10.0176 10.6265 9.42785 11.459 8.9011C11.779 8.65286 12.099 8.4676 12.3865 8.06435C12.7065 7.6611 12.739 7.10285 12.4827 6.60759C12.3227 6.2976 11.8752 5.73935 10.7865 5.73935C9.41021 5.73935 8.96272 6.5761 8.83395 7.25785C8.80146 7.56785 8.51395 7.75435 8.22647 7.75435H7.26647C6.88272 7.75435 6.59395 7.41285 6.62647 7.07259C6.91397 5.30584 8.22647 3.63097 10.7538 3.63097C12.3863 3.63097 13.7301 4.37448 14.4012 5.64597C15.0749 6.82422 14.979 8.21928 14.179 9.30435Z" fill="#2CA58D"/>
</svg>
