<svg width="48" height="48" viewBox="0 0 48 48" fill="none" xmlns="http://www.w3.org/2000/svg">
<path d="M47.2887 24.0009C47.2887 22.4476 47.1447 20.9307 46.8817 19.46H24.2612V28.5419H37.9514C37.0624 31.6851 35.1961 34.3732 32.698 36.2299L39.762 41.85C44.4182 37.4568 47.2906 31.0899 47.2906 24.0009H47.2887Z" fill="#3284FF"/>
<path d="M24.5567 9.73095C27.9975 9.73095 31.0984 10.9771 33.5004 13.0508L40.0383 6.42074C35.9543 2.4385 30.4437 0 24.261 0C15.0466 0 6.83058 5.4127 2.83105 13.2889L10.857 19.4081C12.9095 13.767 18.3606 9.73095 24.5548 9.73095H24.5567Z" fill="#FF3424"/>
<path d="M2.98292 35.003L10.7228 28.8472C10.2523 27.4225 9.9912 25.9057 9.9912 24.3274C9.9912 22.6012 10.3003 20.9461 10.8591 19.4101L2.83316 13.2908C1.19533 16.5146 0.260254 20.1493 0.260254 24.001C0.260254 27.8526 1.25293 31.7062 2.98292 35.003Z" fill="#FFBB00"/>
<path d="M10.7208 28.8454L2.98096 35.0012C7.03232 42.7199 15.16 48.0001 24.2593 48.0001C30.3017 48.0001 35.7068 45.673 39.7581 41.8482L32.6941 36.2281C30.4208 37.9178 27.6271 38.9181 24.553 38.9181C18.2148 38.9181 12.6543 34.6921 10.7169 28.8435L10.7208 28.8454Z" fill="#26B14C"/>
</svg>
