<svg width="49" height="48" viewBox="0 0 49 48" fill="none" xmlns="http://www.w3.org/2000/svg">
<g clip-path="url(#clip0_784_1714)">
<path d="M44.6416 11.1734C44.7278 11.4448 44.8883 11.6714 45.0676 11.8874C45.3815 12.4774 45.6966 13.0675 46.0105 13.6575C46.5841 15.0064 47.1647 16.3576 47.4963 17.7879C47.9011 19.5333 48.2209 21.2834 48.3212 23.0914C48.3849 24.2314 48.2835 25.3537 48.2256 26.4653C48.123 28.4113 47.6297 30.3172 46.983 32.1712C46.0825 34.7521 44.7738 37.097 43.0614 39.2306C42.3498 40.1181 41.571 40.9359 40.7933 41.7584C39.173 43.1828 37.4547 44.4727 35.5476 45.4888C33.3538 46.6583 31.0042 47.4077 28.5897 47.9647C28.2026 48.0544 27.9666 48.0048 27.969 47.4608C27.9926 42.1927 27.989 36.9247 27.9737 31.6567C27.9725 31.2129 28.0905 31.0926 28.5319 31.1008C30.0648 31.128 31.5978 31.1055 33.132 31.1162C33.4647 31.1185 33.6099 31.0902 33.6654 30.6665C33.8801 29.0427 34.1846 27.4319 34.4431 25.8139C34.528 25.2781 34.5729 24.7353 34.6425 24.1476C32.8287 24.1476 31.0054 24.1476 29.1809 24.1476C28.3832 24.1476 27.9843 23.7503 27.9843 22.9557C27.9843 21.7567 27.9619 20.5565 27.9961 19.3587C28.0386 17.8576 28.6546 16.7022 30.1227 16.1299C30.7281 15.8939 31.3665 15.8502 32.0085 15.8467C32.8346 15.8431 33.6595 15.8349 34.4855 15.8502C34.8183 15.8561 34.98 15.7888 34.9765 15.4006C34.9576 13.6906 34.9623 11.9806 34.9741 10.2706C34.9765 9.96969 34.888 9.90006 34.5811 9.8623C33.0848 9.67466 31.5895 9.53304 30.0766 9.50118C28.736 9.47404 27.4131 9.49646 26.1374 9.91776C23.042 10.9397 21.3048 13.1454 20.6664 16.2939C20.5236 16.9996 20.428 17.7006 20.4339 18.4229C20.4504 20.1718 20.4268 21.9219 20.4481 23.6708C20.4528 24.065 20.3312 24.1582 19.9524 24.1558C18.1056 24.1452 16.2587 24.1641 14.4106 24.1724C14.3315 24.157 14.302 24.1865 14.3233 24.2656C14.3233 26.509 14.3233 28.7524 14.3233 30.9958C14.302 31.0749 14.3327 31.1032 14.4106 31.0878C16.2575 31.0961 18.1044 31.115 19.9513 31.1044C20.3277 31.102 20.4481 31.1941 20.4469 31.5882C20.4304 37.0521 20.4316 42.5161 20.4292 47.98C20.1507 47.9729 19.8663 48.0272 19.6031 47.8856C18.2165 47.7062 16.8995 47.2743 15.5954 46.7928C15.3193 46.6713 15.0432 46.5485 14.767 46.427C14.7351 46.4069 14.7045 46.388 14.6726 46.368C14.413 46.2488 14.1498 46.1379 13.8961 46.008C13.044 45.5738 12.1955 45.1336 11.3459 44.6958C11.0402 44.4692 10.7334 44.2414 10.4277 44.0148C9.63469 43.4059 8.84165 42.7969 8.04861 42.188C7.70048 41.8753 7.35234 41.5614 7.00303 41.2486C6.75048 40.6314 6.18049 40.2739 5.77453 39.7841C3.2125 36.6946 1.44587 33.2357 0.590284 29.2964C0.163083 27.3433 0.00376702 25.3891 0.0509716 23.4018C0.152462 19.0849 1.37978 15.1138 3.65268 11.4543C3.85448 11.1286 4.04566 10.7969 4.24156 10.4677C4.25336 10.2435 4.55193 10.234 4.57671 10.0193C5.54795 8.67038 6.66552 7.44896 7.8834 6.32549C8.89121 5.39556 9.93326 4.49985 11.1535 3.84253C11.2326 3.80005 11.2833 3.70446 11.347 3.63365C12.2522 3.12974 13.1668 2.64471 14.0979 2.18801C15.1883 1.65342 16.3425 1.30174 17.4789 0.894602C18.5127 0.685721 19.5288 0.411935 20.5862 0.293923C22.0884 0.126347 23.5718 -0.108496 25.1025 0.0590803C25.9651 0.15349 26.8467 0.151129 27.714 0.26088C29.2128 0.448518 30.6596 0.860378 32.1029 1.28876C32.3141 1.43391 32.5572 1.49056 32.8051 1.53186C33.1379 1.73838 33.4978 1.87646 33.8801 1.95907C33.9816 2.04757 34.0831 2.1349 34.233 2.08652C34.508 2.06764 34.5835 2.38981 34.8231 2.42993C35.8769 2.87838 36.7974 3.55458 37.7615 4.15526C39.4963 5.23625 40.8995 6.70313 42.3451 8.12045C42.6 8.56889 42.9836 8.91112 43.3163 9.29584C43.7589 9.92248 44.2014 10.5503 44.644 11.1769L44.6416 11.1734Z" fill="#0079FA"/>
</g>
<defs>
<clipPath id="clip0_784_1714">
<rect width="48.2986" height="48" fill="white" transform="translate(0.0424805)"/>
</clipPath>
</defs>
</svg>
