<svg width="185" height="48" viewBox="0 0 185 48" fill="none" xmlns="http://www.w3.org/2000/svg">
<path d="M83.1257 15.673L86.118 14.2014C86.2161 14.1523 86.3388 14.2014 86.3633 14.275C86.3878 14.2995 86.3878 14.324 86.3878 14.3731V17.7333H89.65V21.1672H86.3878V27.3971C86.2897 28.4518 87.0501 29.4083 88.1048 29.531C88.2274 29.5555 88.3746 29.5555 88.4972 29.531C88.8406 29.5555 89.1594 29.5064 89.4783 29.3593V32.6214C89.3066 32.695 89.1349 32.7441 88.9632 32.7931C88.5462 32.9157 88.1293 32.9648 87.6878 32.9648C86.9765 32.9648 86.2897 32.8422 85.6275 32.5969C85.0143 32.3516 84.4747 31.9592 84.0332 31.4932C83.5917 31.0026 83.2238 30.414 82.9785 29.8008C82.7333 29.0895 82.6106 28.3291 82.6106 27.5688V21.1917H80.3296V18.0767H83.1012V15.673H83.1257Z" fill="#171838"/>
<path d="M98.1609 32.9648C97.2288 32.9648 96.3213 32.7686 95.4874 32.4007C94.6535 32.0083 93.8686 31.4687 93.2309 30.8064C92.5932 30.0706 92.0536 29.2612 91.6857 28.3537C90.9498 26.367 90.9498 24.184 91.6857 22.1973C92.0536 21.3143 92.5686 20.4804 93.2309 19.7691C93.8686 19.0823 94.6289 18.5427 95.4874 18.1748C96.3213 17.7824 97.2534 17.5862 98.1609 17.5862C98.7495 17.5862 99.3627 17.6598 99.9268 17.856C100.393 18.0031 100.834 18.1994 101.276 18.4201C101.693 18.6654 102.061 18.9352 102.429 19.2295V17.7579H105.862V32.7931H102.429V31.3215C102.085 31.6403 101.693 31.9101 101.276 32.1309C100.859 32.3762 100.393 32.5724 99.9268 32.7196C99.3382 32.8912 98.7495 32.9648 98.1609 32.9648ZM102.404 25.2632C102.404 24.0123 102.036 23.0313 101.325 22.2954C99.8533 20.8238 97.4496 20.8238 95.9534 22.2954C95.2421 23.0313 94.8742 24.0369 94.8742 25.2632C94.8742 26.5141 95.2421 27.4952 95.9534 28.231C97.425 29.7027 99.8287 29.7027 101.325 28.231C102.061 27.4952 102.404 26.5141 102.404 25.2632Z" fill="#171838"/>
<path d="M115.992 17.5861C116.655 17.5616 117.317 17.6842 117.955 17.905C118.421 18.0766 118.887 18.2974 119.304 18.5672C119.671 18.837 119.99 19.1559 120.26 19.5483C120.628 19.1804 121.02 18.837 121.462 18.5672C121.903 18.2974 122.369 18.0766 122.86 17.905C123.424 17.6842 124.037 17.5616 124.651 17.5861C126.294 17.5861 127.594 18.1012 128.575 19.1559C129.556 20.2105 130.047 21.7557 130.047 23.7915V32.7931H126.294V24.1349C126.294 23.2274 126.049 22.4916 125.533 21.9765C125.117 21.4859 124.479 21.1916 123.841 21.1916C123.179 21.1916 122.541 21.4859 122.1 21.9765C121.609 22.4916 121.388 23.2274 121.388 24.1349V32.7931H117.636V24.1349C117.636 23.2274 117.39 22.4916 116.875 21.9765C116.458 21.4859 115.821 21.1916 115.183 21.1916C114.521 21.1916 113.883 21.4859 113.442 21.9765C112.951 22.4916 112.73 23.2274 112.73 24.1349V32.7931H108.978V17.7578H112.411V19.2294C112.73 18.9106 113.049 18.6408 113.417 18.42C113.76 18.1993 114.153 18.0031 114.521 17.8559C114.987 17.6597 115.477 17.5861 115.992 17.5861Z" fill="#171838"/>
<path d="M140.667 17.5862C141.599 17.5862 142.506 17.7824 143.34 18.1748C144.199 18.5427 144.959 19.0823 145.572 19.7691C146.235 20.4559 146.75 21.2898 147.118 22.1973C147.902 24.1595 147.902 26.367 147.118 28.3537C146.774 29.2612 146.235 30.0951 145.572 30.8064C144.935 31.4687 144.199 32.0328 143.34 32.4007C142.506 32.7686 141.574 32.9648 140.667 32.9648C140.103 32.9648 139.539 32.8912 138.999 32.7441C138.582 32.5969 138.19 32.4497 137.797 32.2535C137.429 32.0573 137.061 31.7875 136.743 31.4932V36.3005L133.26 38.1156C133.162 38.1646 133.039 38.1156 132.99 38.042C132.965 38.0175 132.965 37.9929 132.965 37.9439V17.7579H136.399V19.2295C136.743 18.9107 137.135 18.6409 137.552 18.4201C137.993 18.1994 138.435 18.0031 138.901 17.856C139.49 17.6598 140.078 17.5862 140.667 17.5862ZM136.424 25.2632C136.424 26.5141 136.792 27.4952 137.503 28.231C138.975 29.7027 141.378 29.7027 142.874 28.231C143.586 27.4952 143.954 26.4896 143.954 25.2632C143.954 24.0369 143.586 23.0313 142.874 22.2709C141.403 20.7993 138.999 20.7993 137.503 22.2709C136.792 23.0313 136.424 24.0369 136.424 25.2632Z" fill="#171838"/>
<path d="M163.404 28.2065C163.183 28.8197 162.864 29.3838 162.496 29.8989C162.079 30.4876 161.589 31.0026 161.024 31.4441C160.436 31.8856 159.774 32.2535 159.062 32.5233C158.302 32.8177 157.517 32.9648 156.708 32.9403C155.702 32.9403 154.721 32.7441 153.789 32.3517C152.906 31.9347 152.096 31.3706 151.41 30.6838C150.723 29.9725 150.183 29.1631 149.766 28.2556C149.374 27.299 149.178 26.2689 149.178 25.2387C149.178 24.2086 149.374 23.203 149.766 22.2709C150.159 21.3634 150.723 20.5295 151.41 19.8182C152.096 19.1314 152.906 18.5673 153.789 18.1748C154.696 17.7579 155.702 17.5371 156.708 17.5617C157.664 17.5617 158.621 17.7579 159.479 18.1258C160.338 18.4937 161.123 19.0333 161.76 19.6955C162.422 20.4068 162.962 21.2408 163.305 22.1483C163.698 23.1294 163.919 24.184 163.894 25.2632C163.894 25.4349 163.894 25.6066 163.87 25.7783C163.845 25.9255 163.821 26.0726 163.796 26.2443C163.771 26.416 163.747 26.5877 163.722 26.7349H153.249C153.421 27.4462 153.813 28.1084 154.353 28.599C154.917 29.0895 155.702 29.3593 156.683 29.3593C157.1 29.3593 157.517 29.3103 157.934 29.1876C158.253 29.0895 158.547 28.9669 158.817 28.7952C159.062 28.6235 159.283 28.4273 159.479 28.2065H163.404ZM156.708 21.1917C155.825 21.1672 154.966 21.4615 154.279 22.0502C153.666 22.6143 153.274 23.3256 153.102 24.135H160.289C160.117 23.3256 159.7 22.5898 159.087 22.0502C158.449 21.4615 157.591 21.1427 156.708 21.1917Z" fill="#171838"/>
<path d="M172.405 32.9648C171.473 32.9648 170.566 32.7685 169.732 32.4006C168.898 32.0082 168.113 31.4686 167.476 30.8064C166.838 30.0951 166.298 29.2611 165.93 28.3536C165.194 26.3669 165.194 24.184 165.93 22.1973C166.298 21.3143 166.813 20.4803 167.476 19.7691C168.113 19.0823 168.874 18.5427 169.732 18.1748C170.566 17.7823 171.498 17.5861 172.405 17.5861C172.97 17.5861 173.509 17.6597 174.049 17.8559C174.466 17.9786 174.883 18.1502 175.3 18.3465C175.668 18.5427 176.011 18.788 176.354 19.0578V13.8825L179.837 12.0429C179.935 11.9939 180.058 12.0429 180.107 12.1165C180.132 12.141 180.132 12.1656 180.132 12.2146V32.7931H176.698V31.3214C176.354 31.6403 175.962 31.9101 175.545 32.1308C175.128 32.3761 174.662 32.5723 174.196 32.7195C173.583 32.8912 172.994 32.9648 172.405 32.9648ZM176.649 25.2632C176.649 24.0123 176.281 23.0312 175.57 22.2954C174.098 20.8237 171.694 20.8237 170.198 22.2954C169.487 23.0312 169.119 24.0368 169.119 25.2632C169.119 26.5141 169.487 27.4952 170.198 28.231C171.67 29.7026 174.073 29.7026 175.57 28.231C176.281 27.4952 176.649 26.5141 176.649 25.2632Z" fill="#171838"/>
<path d="M64.4604 17.9295C64.4604 17.1446 64.6321 16.3843 64.951 15.673C65.2943 14.9617 65.7849 14.324 66.3981 13.8089C67.0603 13.2448 67.8207 12.8033 68.6546 12.509C69.6112 12.1656 70.6413 11.9939 71.6469 12.0184C72.6035 12.0184 73.5355 12.1656 74.4185 12.509C75.2279 12.8033 75.9637 13.2693 76.6014 13.8825C77.2146 14.4712 77.6807 15.1824 77.9995 15.9673C78.3429 16.7767 78.4901 17.6597 78.4901 18.5427H74.7374C74.7374 17.6352 74.4676 16.9239 73.928 16.3843C73.3884 15.8447 72.628 15.5994 71.6469 15.5994C70.6658 15.5994 69.9055 15.8447 69.3659 16.3107C68.8263 16.7767 68.5565 17.3163 68.5565 17.8805C68.532 18.4446 68.8508 18.9842 69.3414 19.2785C69.9545 19.6464 70.6168 19.9407 71.3035 20.1615C72.0884 20.4313 72.9223 20.7011 73.8544 20.9709C74.7619 21.2407 75.6203 21.6331 76.4298 22.0992C77.2146 22.5897 77.8769 23.2274 78.3919 23.9878C78.907 24.7481 79.1768 25.7537 79.1768 26.9801C79.1768 27.7404 78.9806 28.4763 78.6372 29.1385C78.2693 29.8498 77.7542 30.512 77.141 31.0271C76.4298 31.6158 75.6204 32.0573 74.7619 32.3516C73.7808 32.695 72.7507 32.8667 71.696 32.8421C70.6413 32.8667 69.5866 32.695 68.6055 32.3516C67.7716 32.0573 66.9867 31.5912 66.3245 30.9781C65.6868 30.3894 65.1962 29.6536 64.8529 28.8687C64.5095 28.0102 64.3623 27.1027 64.3623 26.1707H68.2622C68.2376 27.0046 68.5565 27.8386 69.1697 28.4272C69.7828 28.9913 70.6168 29.2857 71.6714 29.2857C72.8242 29.2857 73.6827 29.0404 74.2468 28.5744C74.7619 28.1574 75.0807 27.5197 75.1053 26.8575C75.1298 26.2688 74.8355 25.7047 74.3204 25.3858C73.7072 24.9934 73.045 24.6991 72.3582 24.4783C71.5733 24.184 70.7149 23.9142 69.7828 23.6689C68.8999 23.4236 68.0414 23.0557 67.232 22.5897C66.4717 22.1482 65.7849 21.5596 65.2698 20.8237C64.7057 20.0879 64.4604 19.1068 64.4604 17.9295Z" fill="#171838"/>
<path d="M182.707 31.2234V31.5668H182.241V32.7931H181.898V31.5668H181.432V31.2234H182.707Z" fill="#171838"/>
<path d="M184.645 31.2234V32.7931H184.301V31.8611L183.811 32.6705H183.762L183.271 31.8611V32.7931H182.928V31.2234H183.296L183.811 32.0573L184.301 31.2234H184.645Z" fill="#171838"/>
<path d="M15.2095 17.1937L20.8017 0H25.9524L20.3602 17.1937H15.2095Z" fill="#FF672E"/>
<path d="M15.3077 32.6949L0.689453 22.0745L2.28373 17.1936L16.902 27.8139L15.3077 32.6949Z" fill="#FFD600"/>
<path d="M30.0487 37.3797L15.4304 48L11.2607 44.9831L25.879 34.3628L30.0487 37.3797Z" fill="#FFB800"/>
<path d="M39.0749 24.7727L44.6672 41.9664L40.4975 44.9832L34.9053 27.7896L39.0749 24.7727Z" fill="#FFAA05"/>
<path d="M29.9014 12.2881H47.978L49.5723 17.169H31.4956L29.9014 12.2881Z" fill="#FF883B"/>
</svg>
