<svg width="92" height="65" viewBox="0 0 92 65" fill="none" xmlns="http://www.w3.org/2000/svg">
<path opacity="0.5" d="M55.941 51.6894L55.941 64.6697L58.361 64.6697C78.1614 64.6697 91.1416 51.2494 91.1416 28.589C91.1416 8.78866 81.4614 0.208495 69.3612 0.208494C58.361 0.208493 50.2209 7.68863 50.2209 18.4688C50.2209 29.029 58.361 37.6092 73.1013 37.8292C73.1013 47.0693 68.4812 51.2494 55.941 51.6894ZM41.4207 28.589C41.4207 8.78865 31.7405 0.208491 19.6403 0.20849C8.6401 0.208489 0.499944 7.68863 0.499943 18.4688C0.499942 29.029 8.64009 37.6092 23.3804 37.8292C23.3804 47.0693 18.7603 51.2494 6.22005 51.6894L6.22005 64.6697L8.64009 64.6697C28.4405 64.6697 41.4207 51.2494 41.4207 28.589Z" fill="white"/>
</svg>
