<svg width="16" height="17" viewBox="0 0 16 17" fill="none" xmlns="http://www.w3.org/2000/svg">
<g clip-path="url(#clip0_106_139)">
<path d="M6.00313 2.74694C6.53125 2.59069 6.83438 2.03131 6.675 1.50319C6.51563 0.975061 5.95938 0.671937 5.43125 0.831312C4.75938 1.03131 4.125 1.31569 3.5375 1.67506C3.29063 1.56256 3.0125 1.50006 2.71875 1.50006C1.61563 1.50006 0.71875 2.39694 0.71875 3.50006C0.71875 3.79381 0.78125 4.07194 0.89375 4.32194C0.537501 4.90631 0.250001 5.54381 0.0500005 6.21569C-0.106249 6.74381 0.193751 7.30319 0.721875 7.45944C1.25 7.61569 1.80938 7.31569 1.96563 6.78756C2.1 6.33131 2.29063 5.89694 2.525 5.49381C2.5875 5.50006 2.65313 5.50319 2.71563 5.50319C3.81875 5.50319 4.71563 4.60631 4.71563 3.50319C4.71563 3.43756 4.7125 3.37506 4.70625 3.31256C5.10938 3.07819 5.54375 2.88756 6 2.75319L6.00313 2.74694ZM10.0031 0.831312C9.475 0.675062 8.91563 0.975061 8.75938 1.50319C8.60313 2.03131 8.90313 2.59069 9.43125 2.74694C9.8875 2.88131 10.3219 3.07194 10.725 3.30631C10.7188 3.36881 10.7156 3.43444 10.7156 3.49694C10.7156 4.60006 11.6125 5.49694 12.7156 5.49694C12.7813 5.49694 12.8438 5.49381 12.9094 5.48756C13.1438 5.89069 13.3344 6.32506 13.4688 6.78131C13.625 7.30944 14.1844 7.61256 14.7125 7.45319C15.2406 7.29381 15.5438 6.73756 15.3844 6.20944C15.1844 5.53756 14.9 4.90319 14.5406 4.31569C14.6531 4.06569 14.7156 3.78756 14.7156 3.49381C14.7156 2.39069 13.8188 1.49381 12.7156 1.49381C12.4219 1.49381 12.1438 1.55631 11.8938 1.66881C11.3094 1.30944 10.675 1.02506 10 0.825062L10.0031 0.831312ZM1.96563 10.2157C1.80938 9.68756 1.25 9.38444 0.721875 9.54381C0.193751 9.70319 -0.109374 10.2594 0.0500005 10.7876C0.250001 11.4594 0.534375 12.0938 0.89375 12.6813C0.78125 12.9282 0.71875 13.2063 0.71875 13.5001C0.71875 14.6032 1.61563 15.5001 2.71875 15.5001C3.0125 15.5001 3.29063 15.4376 3.54063 15.3251C4.125 15.6844 4.75938 15.9688 5.43438 16.1688C5.9625 16.3251 6.52188 16.0251 6.67813 15.4969C6.83438 14.9688 6.53438 14.4094 6.00625 14.2532C5.55 14.1188 5.11563 13.9282 4.7125 13.6938C4.71875 13.6313 4.72188 13.5657 4.72188 13.5001C4.72188 12.3969 3.825 11.5001 2.72188 11.5001C2.65625 11.5001 2.59375 11.5032 2.52813 11.5094C2.29375 11.1063 2.10313 10.6719 1.96875 10.2157H1.96563ZM15.3844 10.7876C15.5406 10.2594 15.2406 9.70006 14.7125 9.54381C14.1844 9.38756 13.625 9.68756 13.4688 10.2157C13.3344 10.6719 13.1438 11.1063 12.9094 11.5094C12.8469 11.5032 12.7813 11.5001 12.7156 11.5001C11.6125 11.5001 10.7156 12.3969 10.7156 13.5001C10.7156 13.5657 10.7188 13.6282 10.725 13.6938C10.3219 13.9282 9.8875 14.1188 9.43125 14.2532C8.90313 14.4094 8.6 14.9688 8.75938 15.4969C8.91875 16.0251 9.475 16.3282 10.0031 16.1688C10.675 15.9688 11.3094 15.6844 11.8969 15.3251C12.1469 15.4376 12.425 15.5001 12.7188 15.5001C13.8219 15.5001 14.7188 14.6032 14.7188 13.5001C14.7188 13.2063 14.6563 12.9282 14.5438 12.6782C14.9031 12.0938 15.1875 11.4594 15.3875 10.7844L15.3844 10.7876ZM5.74375 8.52506C5.74375 8.03756 5.91875 7.59069 6.20938 7.24069L6.6875 7.71881C6.89375 7.92506 7.24375 7.77819 7.24375 7.48756V5.60006C7.24375 5.42194 7.09688 5.27506 6.91875 5.27506H5.02813C4.7375 5.27506 4.59375 5.62506 4.79688 5.83131L5.14688 6.18131C4.5875 6.80006 4.24375 7.62506 4.24375 8.52819C4.24375 9.89069 5.02188 11.0688 6.15313 11.6469C6.52188 11.8344 6.975 11.6907 7.1625 11.3219C7.35 10.9532 7.20625 10.5001 6.8375 10.3126C6.1875 9.98131 5.74688 9.30631 5.74688 8.53131L5.74375 8.52506ZM8.65313 6.69381C9.30313 7.02506 9.74375 7.70006 9.74375 8.47506C9.74375 8.96256 9.56875 9.40944 9.27813 9.75944L8.8 9.28131C8.59375 9.07506 8.24375 9.22194 8.24375 9.51256V11.4032C8.24375 11.5813 8.39063 11.7282 8.56875 11.7282H10.4594C10.75 11.7282 10.8938 11.3782 10.6906 11.1719L10.3406 10.8219C10.9 10.2032 11.2438 9.37819 11.2438 8.47506C11.2438 7.11256 10.4656 5.93444 9.33438 5.35631C8.96563 5.16881 8.5125 5.31256 8.325 5.68131C8.1375 6.05006 8.28125 6.50319 8.65 6.69069L8.65313 6.69381Z" fill="#2CA58D"/>
</g>
<defs>
<clipPath id="clip0_106_139">
<rect width="16" height="16" fill="white" transform="translate(0 0.5)"/>
</clipPath>
</defs>
</svg>
