<svg width="362" height="81" viewBox="0 0 362 81" fill="none" xmlns="http://www.w3.org/2000/svg">
<path d="M47.2355 64.7435C46.9655 64.8003 46.71 64.9119 46.4849 65.0713C46.2597 65.2308 46.0697 65.4348 45.9266 65.6707C42.277 65.6286 38.6797 64.7978 35.3814 63.2351C35.3262 63.1993 35.2666 63.1709 35.2042 63.1503C31.7129 61.4603 28.6534 58.9958 26.2586 55.9446C23.8639 52.8933 22.1971 49.3357 21.3852 45.5429L21.3827 45.5312C20.5919 41.8077 20.6466 37.9543 21.5427 34.2548C22.4388 30.5554 24.1535 27.104 26.5605 24.1552C26.7208 24.0168 26.8735 23.8699 27.0179 23.7151L27.0271 23.7009C27.229 23.4989 27.5499 23.2225 27.9452 22.8936C30.7119 20.5302 37.2035 15.0121 35.011 7.51976C34.9271 7.2315 34.7374 6.98561 34.4798 6.83144C34.2222 6.67727 33.9158 6.62622 33.6222 6.68854C30.632 7.44446 28.0297 9.28494 26.3207 11.8524C24.511 14.6858 24.0232 18.2666 24.8561 22.4728C24.8272 22.5004 24.8008 22.5306 24.7773 22.563C23.6245 23.9529 22.6148 25.4555 21.7637 27.048C21.0322 23.2611 19.1226 18.1941 14.1926 15.6791C14.0334 15.5971 13.8577 15.5521 13.6786 15.5478C13.4995 15.5434 13.3218 15.5798 13.1588 15.654C12.9939 15.727 12.8475 15.8362 12.7305 15.9734C12.6134 16.1106 12.5287 16.2723 12.4825 16.4467C12.3907 16.8212 10.2132 25.5852 13.9871 30.207C14.6549 31.0067 15.4816 31.6589 16.4147 32.1224C17.3478 32.5858 18.3671 32.8504 19.4078 32.8993C18.7236 35.3607 18.3991 37.9081 18.4443 40.4625C16.1731 37.5537 12.5195 34.5348 7.37278 35.0901C7.20619 35.1094 7.04554 35.1635 6.90128 35.2491C6.75703 35.3346 6.6324 35.4495 6.53551 35.5864C6.43614 35.7188 6.36641 35.871 6.33107 36.0327C6.29573 36.1945 6.29561 36.3619 6.33071 36.5237C6.41287 36.9103 7.94097 44.0418 12.8398 46.6981C14.6419 47.6754 16.7414 47.953 18.7355 47.4774C18.9435 47.437 19.1491 47.3851 19.3513 47.322C20.061 50.0458 21.1873 52.6437 22.6902 55.0236C18.5299 54.7272 14.3899 55.8313 10.9297 58.1601C10.78 58.2582 10.6544 58.3886 10.5619 58.5418C10.4694 58.6949 10.4125 58.8669 10.3954 59.045C10.3747 59.2243 10.3959 59.4059 10.4575 59.5756C10.5191 59.7452 10.6192 59.8982 10.7501 60.0225C10.9355 60.2035 15.339 64.4465 20.0113 63.5024L20.0933 63.485C21.295 63.1696 22.4126 62.5939 23.3671 61.7986C24.3215 61.0033 25.0894 60.0078 25.6164 58.8828C27.3387 60.8014 29.3211 62.4695 31.506 63.8384C28.1179 65.1218 23.3238 68.4303 23.9071 76.8769C23.9189 77.0549 23.9708 77.2279 24.0589 77.383C24.147 77.5381 24.269 77.6714 24.4158 77.7727C24.5491 77.8693 24.7013 77.9364 24.8625 77.9697C25.0237 78.003 25.19 78.0017 25.3507 77.9658L25.4327 77.9484C25.5239 77.9167 34.9117 75.1377 35.8828 66.0547C39.1371 67.3779 42.6162 68.0602 46.1292 68.0641C46.3645 68.3343 46.667 68.5376 47.0061 68.6532C47.3452 68.7689 47.7088 68.7928 48.0602 68.7226C48.4115 68.6523 48.738 68.4905 49.0066 68.2533C49.2752 68.0162 49.4763 67.7123 49.5896 67.3724C49.7028 67.0324 49.7242 66.6686 49.6515 66.3178C49.5788 65.9669 49.4146 65.6416 49.1756 65.3747C48.9365 65.1078 48.6312 64.9088 48.2905 64.798C47.9498 64.6871 47.5858 64.6683 47.2355 64.7435Z" fill="#2CA58D"/>
<path d="M60.5868 18.5642V41.6042H69.4668V8.00425H60.5868C59.2428 11.9402 56.7468 13.1402 52.6188 13.6682V20.9162C55.1628 20.9162 58.3308 20.8682 60.5868 18.5642ZM88.1917 42.0842C94.4317 42.0842 102.016 38.3402 102.016 24.8042C102.016 11.3642 94.4317 7.57225 88.1917 7.57225C82.0957 7.57225 74.4157 11.3642 74.4157 24.8042C74.4157 38.3402 82.0957 42.0842 88.1917 42.0842ZM82.8637 24.8042C82.8637 20.4842 83.5357 14.9642 88.1917 14.9642C92.8957 14.9642 93.5677 20.4842 93.5677 24.8042C93.5677 29.1722 92.8957 34.6922 88.1917 34.6922C83.5357 34.6922 82.8637 29.1722 82.8637 24.8042ZM119.035 42.0842C125.275 42.0842 132.859 38.3402 132.859 24.8042C132.859 11.3642 125.275 7.57225 119.035 7.57225C112.939 7.57225 105.259 11.3642 105.259 24.8042C105.259 38.3402 112.939 42.0842 119.035 42.0842ZM113.707 24.8042C113.707 20.4842 114.379 14.9642 119.035 14.9642C123.739 14.9642 124.411 20.4842 124.411 24.8042C124.411 29.1722 123.739 34.6922 119.035 34.6922C114.379 34.6922 113.707 29.1722 113.707 24.8042ZM136.119 15.9622C136.119 14.9807 136.302 14.0505 136.668 13.1716C137.035 12.2781 137.547 11.5017 138.207 10.8425C138.88 10.1687 139.679 9.64136 140.602 9.2605C141.524 8.86499 142.535 8.66724 143.634 8.66724C144.732 8.66724 145.743 8.86499 146.666 9.2605C147.589 9.64136 148.38 10.1687 149.039 10.8425C149.698 11.5017 150.211 12.2781 150.577 13.1716C150.958 14.0505 151.148 14.9807 151.148 15.9622C151.148 16.9583 150.965 17.8958 150.599 18.7747C150.248 19.6536 149.742 20.4299 149.083 21.1038C148.424 21.7776 147.633 22.3123 146.71 22.7078C145.787 23.0886 144.762 23.2791 143.634 23.2791C142.491 23.2791 141.458 23.0886 140.536 22.7078C139.613 22.3123 138.822 21.7776 138.163 21.1038C137.518 20.4299 137.013 19.6536 136.646 18.7747C136.295 17.8958 136.119 16.9583 136.119 15.9622ZM143.634 12.2708C143.106 12.2708 142.608 12.366 142.14 12.5564C141.686 12.7322 141.283 12.9885 140.931 13.3254C140.594 13.6477 140.323 14.0359 140.118 14.49C139.928 14.9441 139.833 15.4348 139.833 15.9622C139.833 16.4749 139.928 16.9656 140.118 17.4343C140.323 17.8884 140.594 18.2913 140.931 18.6428C141.283 18.9797 141.686 19.2507 142.14 19.4558C142.608 19.6462 143.106 19.7415 143.634 19.7415C144.146 19.7415 144.63 19.6462 145.084 19.4558C145.538 19.2507 145.934 18.9797 146.271 18.6428C146.607 18.3059 146.871 17.9104 147.062 17.4563C147.267 16.9875 147.369 16.4895 147.369 15.9622C147.369 15.4348 147.267 14.9441 147.062 14.49C146.871 14.0359 146.607 13.6477 146.271 13.3254C145.934 12.9885 145.538 12.7322 145.084 12.5564C144.63 12.366 144.146 12.2708 143.634 12.2708ZM161.981 7.76636H166.266L143.392 41.9558H139.129L161.981 7.76636ZM155.147 34.5071C155.147 33.5256 155.331 32.5955 155.697 31.7166C156.063 30.8376 156.576 30.0686 157.235 29.4094C157.909 28.7356 158.707 28.2009 159.63 27.8054C160.553 27.4099 161.563 27.2122 162.662 27.2122C163.761 27.2122 164.771 27.4099 165.694 27.8054C166.617 28.2009 167.408 28.7356 168.067 29.4094C168.741 30.0686 169.261 30.8376 169.627 31.7166C169.994 32.5955 170.177 33.5256 170.177 34.5071C170.177 35.5032 169.994 36.448 169.627 37.3416C169.276 38.2205 168.771 38.9968 168.111 39.6707C167.467 40.3298 166.683 40.8572 165.76 41.2527C164.837 41.6482 163.805 41.8459 162.662 41.8459C161.52 41.8459 160.487 41.6482 159.564 41.2527C158.641 40.8572 157.85 40.3298 157.191 39.6707C156.546 38.9968 156.041 38.2205 155.675 37.3416C155.323 36.448 155.147 35.5032 155.147 34.5071ZM162.662 30.8157C162.149 30.8157 161.659 30.9109 161.19 31.1013C160.736 31.2917 160.333 31.5554 159.981 31.8923C159.645 32.2146 159.374 32.6028 159.168 33.0569C158.978 33.4963 158.883 33.9797 158.883 34.5071C158.883 35.0198 158.978 35.5105 159.168 35.9792C159.374 36.4333 159.645 36.8362 159.981 37.1877C160.333 37.5247 160.736 37.7957 161.19 38.0007C161.659 38.1912 162.149 38.2864 162.662 38.2864C163.175 38.2864 163.658 38.1912 164.112 38.0007C164.566 37.7957 164.962 37.5247 165.299 37.1877C165.636 36.8508 165.899 36.4553 166.09 36.0012C166.295 35.5325 166.397 35.0344 166.397 34.5071C166.397 33.9797 166.295 33.4963 166.09 33.0569C165.899 32.6028 165.636 32.2146 165.299 31.8923C164.962 31.5554 164.566 31.2917 164.112 31.1013C163.658 30.9109 163.175 30.8157 162.662 30.8157ZM185.898 41.6042H194.97V31.4282H200.25C209.802 31.4282 213.69 26.3882 213.69 19.7162C213.69 13.0442 209.802 8.00425 200.25 8.00425H185.898V41.6042ZM194.97 23.5562V15.8762H199.962C203.082 15.8762 204.282 17.5562 204.282 19.7162C204.282 21.8762 203.082 23.5562 199.962 23.5562H194.97ZM211.218 41.6042H220.77L222.402 36.5642H235.362L236.994 41.6042H246.546L234.786 8.00425H222.978L211.218 41.6042ZM224.514 29.8922L228.642 17.1242H229.122L233.25 29.8922H224.514ZM262.585 42.0842C270.217 42.0842 276.985 39.2042 276.985 31.3802C276.985 26.4842 274.345 23.0762 265.369 21.3002L261.049 20.4362C258.841 19.9562 258.361 18.7562 258.361 17.8922C258.361 16.5962 259.273 15.0602 262.297 15.0602C264.553 15.0602 266.905 15.8282 266.713 18.7082H276.169C276.169 11.0282 270.601 7.57225 262.537 7.57225C254.665 7.57225 248.809 10.8362 248.809 17.8922C248.809 24.5642 253.945 26.7242 258.937 27.6842L263.785 28.6442C266.377 29.1722 267.337 29.9402 267.337 31.4282C267.337 33.5402 265.417 34.5962 262.633 34.5962C258.793 34.5962 257.497 32.4362 257.353 29.8922H247.897C247.897 38.1002 253.753 42.0842 262.585 42.0842ZM294.929 42.0842C302.561 42.0842 309.329 39.2042 309.329 31.3802C309.329 26.4842 306.689 23.0762 297.713 21.3002L293.393 20.4362C291.185 19.9562 290.705 18.7562 290.705 17.8922C290.705 16.5962 291.617 15.0602 294.641 15.0602C296.897 15.0602 299.249 15.8282 299.057 18.7082H308.513C308.513 11.0282 302.945 7.57225 294.881 7.57225C287.009 7.57225 281.153 10.8362 281.153 17.8922C281.153 24.5642 286.289 26.7242 291.281 27.6842L296.129 28.6442C298.721 29.1722 299.681 29.9402 299.681 31.4282C299.681 33.5402 297.761 34.5962 294.977 34.5962C291.137 34.5962 289.841 32.4362 289.697 29.8922H280.241C280.241 38.1002 286.097 42.0842 294.929 42.0842Z" fill="white"/>
<path d="M71.112 55.6706C71.2855 55.2676 71.8569 55.2676 72.0304 55.6706L74.0132 60.2749C74.0856 60.443 74.2441 60.5581 74.4263 60.575L79.418 61.038C79.8549 61.0785 80.0314 61.6219 79.7018 61.9115L75.9356 65.2201C75.7981 65.3409 75.7376 65.5272 75.7778 65.7057L76.88 70.5961C76.9765 71.0242 76.5142 71.36 76.137 71.136L71.8265 68.5765C71.6691 68.4831 71.4733 68.4831 71.3159 68.5765L67.0054 71.136C66.6281 71.36 66.1659 71.0242 66.2624 70.5961L67.3646 65.7057C67.4048 65.5272 67.3443 65.3409 67.2068 65.2201L63.4406 61.9115C63.1109 61.6219 63.2875 61.0785 63.7244 61.038L68.7161 60.575C68.8983 60.5581 69.0567 60.443 69.1291 60.2749L71.112 55.6706Z" fill="#F6C344"/>
<path d="M92.0446 55.6706C92.2181 55.2676 92.7895 55.2676 92.963 55.6706L94.9459 60.2749C95.0182 60.443 95.1767 60.5581 95.3589 60.575L100.351 61.038C100.788 61.0785 100.964 61.6219 100.634 61.9115L96.8682 65.2201C96.7307 65.3409 96.6702 65.5272 96.7104 65.7057L97.8126 70.5961C97.9091 71.0242 97.4468 71.36 97.0696 71.136L92.7591 68.5765C92.6017 68.4831 92.4059 68.4831 92.2485 68.5765L87.938 71.136C87.5608 71.36 87.0985 71.0242 87.195 70.5961L88.2972 65.7057C88.3374 65.5272 88.2769 65.3409 88.1394 65.2201L84.3732 61.9115C84.0435 61.6219 84.2201 61.0785 84.657 61.038L89.6487 60.575C89.8309 60.5581 89.9894 60.443 90.0617 60.2749L92.0446 55.6706Z" fill="#F6C344"/>
<path d="M118.231 71.8242C122.301 71.8242 124.721 69.4042 124.721 64.7622V63.5302H118.891V65.3782H122.455C122.477 68.5242 120.607 69.8442 118.253 69.8442C115.173 69.8442 113.479 67.6002 113.479 63.8822C113.479 60.1862 115.129 57.9862 118.209 57.9862C120.013 57.9862 121.465 58.7342 122.015 60.4502H124.281C123.709 57.4802 121.267 56.0062 118.209 56.0062C114.029 56.0062 111.191 58.7782 111.191 63.9482C111.191 69.0082 113.875 71.8242 118.231 71.8242ZM135.018 71.8242C138.67 71.8242 141.09 69.7342 141.09 65.7742V56.2042H138.78V65.6202C138.78 68.3482 137.372 69.8222 135.018 69.8222C132.664 69.8222 131.256 68.3482 131.256 65.6202V56.2042H128.968V65.7742C128.968 69.7342 131.344 71.8242 135.018 71.8242ZM144.099 71.6042H146.497L147.795 68.0622H154.835L156.133 71.6042H158.531L152.745 56.2042H149.885L144.099 71.6042ZM148.433 66.3242L151.249 58.6022H151.381L154.197 66.3242H148.433ZM162.23 71.6042H164.518V65.9282H168.126L171.448 71.6042H173.736L170.216 65.6422C172.504 65.0482 173.604 63.3542 173.604 61.0882C173.604 58.1182 171.8 56.2042 168.038 56.2042H162.23V71.6042ZM164.518 63.9262V58.2062H167.95C170.172 58.2062 171.272 59.2622 171.272 61.0882C171.272 62.8702 170.172 63.9262 167.95 63.9262H164.518ZM176.78 71.6042H179.178L180.476 68.0622H187.516L188.814 71.6042H191.212L185.426 56.2042H182.566L176.78 71.6042ZM181.114 66.3242L183.93 58.6022H184.062L186.878 66.3242H181.114ZM194.912 71.6042H197.2V59.9002H197.244L204.702 71.6042H207.254V56.2042H204.966V68.0182H204.9L197.376 56.2042H194.912V71.6042ZM215.784 71.6042H218.072V58.2502H222.802V56.2042H211.054V58.2502H215.784V71.6042ZM226.605 71.6042H236.835V69.6022H228.893V64.6522H235.955V62.8262H228.893V58.2062H236.615V56.2042H226.605V71.6042ZM240.744 71.6042H250.974V69.6022H243.032V64.6522H250.094V62.8262H243.032V58.2062H250.754V56.2042H240.744V71.6042Z" fill="white"/>
<path d="M268.977 55.6706C269.15 55.2676 269.722 55.2676 269.895 55.6706L271.878 60.2749C271.95 60.443 272.109 60.5581 272.291 60.575L277.283 61.038C277.72 61.0785 277.896 61.6219 277.567 61.9115L273.8 65.2201C273.663 65.3409 273.602 65.5272 273.643 65.7057L274.745 70.5961C274.841 71.0242 274.379 71.36 274.002 71.136L269.691 68.5765C269.534 68.4831 269.338 68.4831 269.181 68.5765L264.87 71.136C264.493 71.36 264.031 71.0242 264.127 70.5961L265.229 65.7057C265.27 65.5272 265.209 65.3409 265.072 65.2201L261.305 61.9115C260.976 61.6219 261.152 61.0785 261.589 61.038L266.581 60.575C266.763 60.5581 266.921 60.443 266.994 60.2749L268.977 55.6706Z" fill="#F6C344"/>
<path d="M289.909 55.6706C290.083 55.2676 290.654 55.2676 290.828 55.6706L292.811 60.2749C292.883 60.443 293.041 60.5581 293.224 60.575L298.215 61.038C298.652 61.0785 298.829 61.6219 298.499 61.9115L294.733 65.2201C294.595 65.3409 294.535 65.5272 294.575 65.7057L295.677 70.5961C295.774 71.0242 295.312 71.36 294.934 71.136L290.624 68.5765C290.466 68.4831 290.271 68.4831 290.113 68.5765L285.803 71.136C285.426 71.36 284.963 71.0242 285.06 70.5961L286.162 65.7057C286.202 65.5272 286.142 65.3409 286.004 65.2201L282.238 61.9115C281.908 61.6219 282.085 61.0785 282.522 61.038L287.513 60.575C287.696 60.5581 287.854 60.443 287.926 60.2749L289.909 55.6706Z" fill="#F6C344"/>
<path d="M351.605 59.0515C351.588 58.8734 351.531 58.7014 351.438 58.5483C351.346 58.3951 351.22 58.2647 351.07 58.1666C347.61 55.8378 343.47 54.7337 339.31 55.0301C340.813 52.6502 341.939 50.0523 342.649 47.3285C342.851 47.3916 343.057 47.4435 343.265 47.4839C345.259 47.9595 347.358 47.682 349.16 46.7046C354.059 44.0483 355.587 36.9168 355.669 36.5302C355.704 36.3684 355.704 36.201 355.669 36.0393C355.634 35.8775 355.564 35.7253 355.465 35.5929C355.368 35.456 355.243 35.3411 355.099 35.2556C354.955 35.1701 354.794 35.1159 354.627 35.0966C349.481 34.5413 345.827 37.5603 343.556 40.469C343.601 37.9146 343.276 35.3672 342.592 32.9058C343.633 32.8569 344.652 32.5924 345.585 32.1289C346.519 31.6655 347.345 31.0132 348.013 30.2135C351.787 25.5918 349.609 16.8278 349.518 16.4532C349.471 16.2788 349.387 16.1171 349.27 15.9799C349.153 15.8427 349.006 15.7335 348.841 15.6605C348.678 15.5863 348.501 15.55 348.321 15.5543C348.142 15.5587 347.967 15.6036 347.807 15.6856C342.877 18.2006 340.968 23.2676 340.236 27.0546C339.385 25.462 338.376 23.9594 337.223 22.5695C337.199 22.5371 337.173 22.5069 337.144 22.4793C337.977 18.2731 337.489 14.6923 335.679 11.8589C333.97 9.29145 331.368 7.45097 328.378 6.69506C328.084 6.63273 327.778 6.68378 327.52 6.83795C327.263 6.99212 327.073 7.23801 326.989 7.52627C324.797 15.0186 331.288 20.5367 334.055 22.9001C334.448 23.2408 334.783 23.5079 334.964 23.6933C334.961 23.705 334.973 23.7075 334.982 23.7217C335.127 23.8765 335.279 24.0234 335.44 24.1617C337.847 27.1106 339.561 30.5619 340.457 34.2614C341.353 37.9608 341.408 41.8142 340.617 45.5377L340.615 45.5494C339.796 49.3745 338.107 52.9598 335.68 56.0278C333.253 59.0957 330.153 61.564 326.619 63.2416C323.258 64.8396 319.585 65.6729 315.864 65.6817C315.591 65.3106 315.197 65.0454 314.751 64.9307C314.227 64.7967 313.672 64.8762 313.207 65.1516C312.742 65.4271 312.405 65.8759 312.271 66.3995C312.137 66.923 312.217 67.4783 312.492 67.9433C312.768 68.4082 313.217 68.7447 313.74 68.8788C314.141 68.9837 314.565 68.9619 314.953 68.8165C315.341 68.671 315.675 68.409 315.908 68.0663C319.408 68.0583 322.874 67.3776 326.117 66.0612C327.088 75.1442 336.476 77.9233 336.567 77.9549L336.649 77.9723C336.81 78.0082 336.976 78.0095 337.138 77.9762C337.299 77.9429 337.451 77.8758 337.584 77.7792C337.731 77.6779 337.853 77.5446 337.941 77.3895C338.029 77.2344 338.081 77.0614 338.093 76.8834C338.676 68.4369 333.882 65.1283 330.494 63.8449C332.679 62.476 334.661 60.8079 336.384 58.8893C336.911 60.0144 337.679 61.0098 338.633 61.8051C339.587 62.6004 340.705 63.1761 341.907 63.4915L341.989 63.5089C346.661 64.4531 351.065 60.21 351.25 60.029C351.381 59.9047 351.481 59.7517 351.543 59.5821C351.604 59.4124 351.625 59.2308 351.605 59.0515Z" fill="#2CA58D"/>
</svg>
