<svg width="19" height="18" viewBox="0 0 19 18" fill="none" xmlns="http://www.w3.org/2000/svg">
<path d="M1.73042 0C0.783018 0 0 0.757533 0 1.68783V6.58146C0 7.51176 0.783018 8.26929 1.73042 8.26929H6.74873C7.69614 8.26929 8.4676 7.51176 8.4676 6.58146V1.68783C8.4676 0.757533 7.69614 0 6.74873 0H1.73042ZM12.2628 0C11.3154 0 10.544 0.757533 10.544 1.68783V6.58146C10.544 7.51176 11.3154 8.26929 12.2628 8.26929H17.2811C18.2285 8.26929 19 7.51176 19 6.58146V1.68783C19 0.757533 18.2285 0 17.2811 0H12.2628ZM1.73042 9.73071C0.783018 9.73071 0 10.4882 0 11.4185V16.3122C0 17.2425 0.783018 18 1.73042 18H6.74873C7.69614 18 8.4676 17.2425 8.4676 16.3122V11.4185C8.4676 10.4882 7.69614 9.73071 6.74873 9.73071H1.73042ZM12.2628 9.73071C11.3154 9.73071 10.544 10.4882 10.544 11.4185V16.3122C10.544 17.2425 11.3154 18 12.2628 18H17.2811C18.2285 18 19 17.2425 19 16.3122V11.4185C19 10.4882 18.2285 9.73071 17.2811 9.73071H12.2628Z" fill="#2CA58D"/>
</svg>
