<svg width="21" height="20" viewBox="0 0 21 20" fill="none" xmlns="http://www.w3.org/2000/svg">
<path d="M3 1.85714C3 1.10647 2.44141 0.5 1.75 0.5C1.05859 0.5 0.5 1.10647 0.5 1.85714V16.1071C0.5 17.9817 1.89844 19.5 3.625 19.5H19.25C19.9414 19.5 20.5 18.8935 20.5 18.1429C20.5 17.3922 19.9414 16.7857 19.25 16.7857H3.625C3.28125 16.7857 3 16.4804 3 16.1071V1.85714ZM18.8828 5.52991C19.3711 4.99978 19.3711 4.13884 18.8828 3.60871C18.3945 3.07857 17.6016 3.07857 17.1133 3.60871L13 8.07879L10.7578 5.64442C10.2695 5.11429 9.47656 5.11429 8.98828 5.64442L4.61328 10.3944C4.125 10.9246 4.125 11.7855 4.61328 12.3156C5.10156 12.8458 5.89453 12.8458 6.38281 12.3156L9.875 8.52835L12.1172 10.9627C12.6055 11.4929 13.3984 11.4929 13.8867 10.9627L18.8867 5.53415L18.8828 5.52991Z" fill="#2CA58D"/>
</svg>
