<svg width="18" height="17" viewBox="0 0 18 17" fill="none" xmlns="http://www.w3.org/2000/svg">
<path d="M8.37595 0.326502C8.54949 -0.0764796 9.12086 -0.0764787 9.2944 0.326503L11.3512 5.10263C11.4236 5.27072 11.582 5.38583 11.7643 5.40273L16.9422 5.88297C17.3791 5.92349 17.5557 6.4669 17.226 6.75647L13.3193 10.1885C13.1818 10.3093 13.1213 10.4956 13.1615 10.6741L14.3048 15.747C14.4013 16.1751 13.9391 16.5109 13.5618 16.2869L9.09045 13.6319C8.93309 13.5384 8.73726 13.5384 8.5799 13.6319L4.10856 16.2869C3.7313 16.5109 3.26905 16.175 3.36552 15.747L4.50886 10.6741C4.54909 10.4956 4.48858 10.3093 4.35108 10.1885L0.444308 6.75647C0.114677 6.46689 0.291241 5.92349 0.728127 5.88297L5.90608 5.40273C6.08831 5.38583 6.24675 5.27072 6.31913 5.10263L8.37595 0.326502Z" fill="#F6C344"/>
</svg>
