<svg width="27" height="35" viewBox="0 0 27 35" fill="none" xmlns="http://www.w3.org/2000/svg">
<path d="M12.1008 0.370581C12.8454 -0.123527 13.82 -0.123527 14.5646 0.370581L15.7694 1.16251C16.1755 1.42648 16.6493 1.55509 17.1299 1.52801L18.5716 1.44002C19.4651 1.38587 20.3044 1.87321 20.7037 2.6719L21.3535 3.96471C21.5701 4.3979 21.9221 4.74309 22.3485 4.95969L23.6548 5.61624C24.4535 6.01559 24.9409 6.8549 24.8867 7.74835L24.7987 9.19006C24.7716 9.67063 24.9002 10.1512 25.1642 10.5506L25.9629 11.7554C26.457 12.4999 26.457 13.4746 25.9629 14.2191L25.1642 15.4307C24.9002 15.8368 24.7716 16.3106 24.7987 16.7912L24.8867 18.2329C24.9409 19.1264 24.4535 19.9657 23.6548 20.365L22.362 21.0148C21.9288 21.2314 21.5836 21.5834 21.367 22.0098L20.7105 23.3161C20.3111 24.1148 19.4718 24.6022 18.5784 24.548L17.1367 24.46C16.6561 24.4329 16.1755 24.5615 15.7762 24.8255L14.5714 25.6242C13.8268 26.1183 12.8521 26.1183 12.1076 25.6242L10.896 24.8255C10.4899 24.5615 10.0161 24.4329 9.53552 24.46L8.09381 24.548C7.20036 24.6022 6.36105 24.1148 5.9617 23.3161L5.31192 22.0233C5.09532 21.5901 4.74336 21.2449 4.31693 21.0283L3.01059 20.3718C2.2119 19.9724 1.72456 19.1331 1.77871 18.2397L1.8667 16.798C1.89377 16.3174 1.76517 15.8368 1.5012 15.4375L0.70927 14.2259C0.215162 13.4814 0.215162 12.5067 0.70927 11.7621L1.5012 10.5573C1.76517 10.1512 1.89377 9.6774 1.8667 9.19683L1.77871 7.75512C1.72456 6.86167 2.2119 6.02236 3.01059 5.62301L4.3034 4.97323C4.73659 4.74986 5.08855 4.3979 5.30515 3.96471L5.95493 2.6719C6.35428 1.87321 7.19359 1.38587 8.08704 1.44002L9.52876 1.52801C10.0093 1.55509 10.4899 1.42648 10.8892 1.16251L12.1008 0.370581ZM18.7476 12.994C18.7476 11.5579 18.1771 10.1806 17.1616 9.16512C16.1461 8.14963 14.7688 7.57914 13.3327 7.57914C11.8966 7.57914 10.5193 8.14963 9.50381 9.16512C8.48832 10.1806 7.91783 11.5579 7.91783 12.994C7.91783 14.4301 8.48832 15.8074 9.50381 16.8229C10.5193 17.8384 11.8966 18.4089 13.3327 18.4089C14.7688 18.4089 16.1461 17.8384 17.1616 16.8229C18.1771 15.8074 18.7476 14.4301 18.7476 12.994ZM0.424989 29.902L3.34226 22.9642C3.35579 22.9709 3.36256 22.9777 3.36933 22.9912L4.01912 24.284C4.81104 25.8544 6.45581 26.8087 8.21565 26.7072L9.65736 26.6192C9.6709 26.6192 9.6912 26.6192 9.70474 26.6327L10.9095 27.4314C11.2547 27.6548 11.6203 27.8308 11.9993 27.9526L9.4543 33.997C9.29862 34.3692 8.95342 34.6197 8.55408 34.6535C8.15473 34.6874 7.76892 34.5046 7.55232 34.1662L5.37284 30.8293L1.57565 31.3911C1.18984 31.4452 0.80403 31.2895 0.560361 30.9849C0.316691 30.6804 0.269311 30.2607 0.41822 29.902H0.424989ZM17.2111 33.9902L14.6661 27.9526C15.0452 27.8308 15.4107 27.6616 15.7559 27.4314L16.9607 26.6327C16.9742 26.626 16.9878 26.6192 17.0081 26.6192L18.4498 26.7072C20.2096 26.8087 21.8544 25.8544 22.6463 24.284L23.2961 22.9912C23.3029 22.9777 23.3096 22.9709 23.3232 22.9642L26.2472 29.902C26.3961 30.2607 26.342 30.6736 26.1051 30.9849C25.8682 31.2963 25.4756 31.452 25.0898 31.3911L21.2926 30.8293L19.1131 34.1594C18.8965 34.4979 18.5107 34.6806 18.1113 34.6468C17.712 34.6129 17.3668 34.3557 17.2111 33.9902Z" fill="#2CA58D"/>
</svg>
