<svg width="37" height="23" viewBox="0 0 37 23" fill="none" xmlns="http://www.w3.org/2000/svg">
<path d="M0.333496 3.83333C0.333496 1.71901 2.12725 0 4.3335 0H20.3335C22.5397 0 24.3335 1.71901 24.3335 3.83333V19.1667C24.3335 21.281 22.5397 23 20.3335 23H4.3335C2.12725 23 0.333496 21.281 0.333496 19.1667V3.83333ZM35.2772 2.14427C35.9272 2.47969 36.3335 3.12656 36.3335 3.83333V19.1667C36.3335 19.8734 35.9272 20.5203 35.2772 20.8557C34.6272 21.1911 33.8397 21.1552 33.221 20.7599L27.221 16.9266L26.3335 16.3576V15.3333V7.66667V6.64245L27.221 6.07344L33.221 2.2401C33.8335 1.85078 34.621 1.80885 35.2772 2.14427Z" fill="#2CA58D"/>
</svg>
