<svg width="31" height="28" viewBox="0 0 31 28" fill="none" xmlns="http://www.w3.org/2000/svg">
<path d="M4.4165 2C4.4165 0.89375 3.57861 0 2.5415 0C1.50439 0 0.666504 0.89375 0.666504 2V23C0.666504 25.7625 2.76416 28 5.354 28H28.7915C29.8286 28 30.6665 27.1063 30.6665 26C30.6665 24.8937 29.8286 24 28.7915 24H5.354C4.83838 24 4.4165 23.55 4.4165 23V2ZM28.2407 7.4125C28.9731 6.63125 28.9731 5.3625 28.2407 4.58125C27.5083 3.8 26.3188 3.8 25.5864 4.58125L19.4165 11.1687L16.0532 7.58125C15.3208 6.8 14.1313 6.8 13.3989 7.58125L6.83643 14.5812C6.104 15.3625 6.104 16.6313 6.83643 17.4125C7.56885 18.1938 8.7583 18.1938 9.49072 17.4125L14.729 11.8313L18.0923 15.4188C18.8247 16.2 20.0142 16.2 20.7466 15.4188L28.2466 7.41875L28.2407 7.4125Z" fill="#2CA58D"/>
</svg>
