<svg width="28" height="28" viewBox="0 0 28 28" fill="none" xmlns="http://www.w3.org/2000/svg">
<path d="M14 0C17.713 0 21.274 1.475 23.8995 4.1005C26.525 6.72601 28 10.287 28 14C28 17.713 26.525 21.274 23.8995 23.8995C21.274 26.525 17.713 28 14 28C10.287 28 6.72601 26.525 4.1005 23.8995C1.475 21.274 0 17.713 0 14C0 10.287 1.475 6.72601 4.1005 4.1005C6.72601 1.475 10.287 0 14 0ZM12.6875 6.5625V14C12.6875 14.4375 12.9062 14.8477 13.2727 15.0938L18.5227 18.5938C19.1242 18.9984 19.9391 18.8344 20.3438 18.2273C20.7484 17.6203 20.5844 16.8109 19.9773 16.4062L15.3125 13.3V6.5625C15.3125 5.83516 14.7273 5.25 14 5.25C13.2727 5.25 12.6875 5.83516 12.6875 6.5625Z" fill="#2CA58D"/>
</svg>
