<svg width="33" height="32" viewBox="0 0 33 32" fill="none" xmlns="http://www.w3.org/2000/svg">
<path d="M32.0503 15.5657C32.0503 6.93497 25.0629 0 16.4846 0C7.85393 0 0.918958 6.98737 0.918958 15.5657C0.918958 18.4432 1.68951 21.1142 3.07609 23.4258L0.15041 29.6925C-0.465621 31.079 0.920962 32.4656 2.30754 31.8496L8.57419 28.972C10.8858 30.3586 13.5567 31.1292 16.4343 31.1292C25.065 31.1312 32.0503 24.144 32.0503 15.5657ZM16.7435 25.7894C15.5616 25.7894 14.5864 24.8141 14.5864 23.6322C14.5864 22.4503 15.5616 21.4751 16.7435 21.4751C17.9255 21.4751 18.9007 22.4503 18.9007 23.6322C18.9007 24.8121 17.9234 25.7894 16.7435 25.7894ZM21.9309 14.847C21.1081 15.9767 20.2353 16.5426 19.6192 17.0041C18.9009 17.5178 18.5918 17.7225 18.5396 18.8543C18.4875 19.368 18.0259 19.7794 17.5122 19.7794H15.9711C15.4052 19.7794 14.9437 19.2657 14.9959 18.6998C15.2006 16.0289 16.228 15.0517 17.5644 14.1788C18.0781 13.7674 18.5918 13.4604 19.0533 12.7922C19.567 12.124 19.6192 11.1989 19.2078 10.3782C18.951 9.86451 18.2326 8.93943 16.4848 8.93943C14.2755 8.93943 13.5571 10.326 13.3504 11.4557C13.2982 11.9694 12.8367 12.2785 12.3752 12.2785H10.8341C10.2181 12.2785 9.75451 11.7126 9.8067 11.1488C10.2682 8.22107 12.3752 5.44565 16.4324 5.44565C19.0531 5.44565 21.2103 6.67771 22.2876 8.78471C23.3692 10.7372 23.2151 13.0489 21.9309 14.847Z" fill="#2CA58D"/>
</svg>
