<svg width="35" height="28" viewBox="0 0 35 28" fill="none" xmlns="http://www.w3.org/2000/svg">
<path d="M8.3165 0C9.44367 0 10.5247 0.447766 11.3217 1.2448C12.1187 2.04183 12.5665 3.12283 12.5665 4.25C12.5665 5.37717 12.1187 6.45817 11.3217 7.2552C10.5247 8.05223 9.44367 8.5 8.3165 8.5C7.18933 8.5 6.10833 8.05223 5.3113 7.2552C4.51427 6.45817 4.0665 5.37717 4.0665 4.25C4.0665 3.12283 4.51427 2.04183 5.3113 1.2448C6.10833 0.447766 7.18933 0 8.3165 0ZM27.8665 0C28.9937 0 30.0747 0.447766 30.8717 1.2448C31.6687 2.04183 32.1165 3.12283 32.1165 4.25C32.1165 5.37717 31.6687 6.45817 30.8717 7.2552C30.0747 8.05223 28.9937 8.5 27.8665 8.5C26.7393 8.5 25.6583 8.05223 24.8613 7.2552C24.0643 6.45817 23.6165 5.37717 23.6165 4.25C23.6165 3.12283 24.0643 2.04183 24.8613 1.2448C25.6583 0.447766 26.7393 0 27.8665 0ZM0.666504 15.8684C0.666504 12.7394 3.20588 10.2 6.33494 10.2H8.60338C9.44807 10.2 10.2503 10.3859 10.9728 10.7153C10.9037 11.0978 10.8718 11.4962 10.8718 11.9C10.8718 13.9294 11.7643 15.7516 13.1721 17C13.1615 17 13.1509 17 13.1349 17H1.79807C1.1765 17 0.666504 16.49 0.666504 15.8684ZM22.1981 17C22.1874 17 22.1768 17 22.1609 17C23.574 15.7516 24.4612 13.9294 24.4612 11.9C24.4612 11.4962 24.424 11.1031 24.3603 10.7153C25.0828 10.3806 25.8849 10.2 26.7296 10.2H28.9981C32.1271 10.2 34.6665 12.7394 34.6665 15.8684C34.6665 16.4953 34.1565 17 33.5349 17H22.1981ZM12.5665 11.9C12.5665 10.5474 13.1038 9.25019 14.0603 8.29375C15.0167 7.33732 16.3139 6.8 17.6665 6.8C19.0191 6.8 20.3163 7.33732 21.2727 8.29375C22.2292 9.25019 22.7665 10.5474 22.7665 11.9C22.7665 13.2526 22.2292 14.5498 21.2727 15.5062C20.3163 16.4627 19.0191 17 17.6665 17C16.3139 17 15.0167 16.4627 14.0603 15.5062C13.1038 14.5498 12.5665 13.2526 12.5665 11.9ZM7.4665 25.7816C7.4665 21.8716 10.6381 18.7 14.5481 18.7H20.7849C24.6949 18.7 27.8665 21.8716 27.8665 25.7816C27.8665 26.5625 27.2343 27.2 26.4481 27.2H8.88494C8.104 27.2 7.4665 26.5678 7.4665 25.7816Z" fill="#2CA58D"/>
</svg>
