<svg width="91" height="65" viewBox="0 0 91 65" fill="none" xmlns="http://www.w3.org/2000/svg">
<path d="M55.441 51.4809L55.441 64.4612L57.861 64.4612C77.6614 64.4612 90.6416 51.0409 90.6416 28.3805C90.6416 8.58016 80.9614 -8.46268e-07 68.8612 -1.9041e-06C57.861 -2.86577e-06 49.7209 7.48013 49.7209 18.2603C49.7209 28.8205 57.861 37.4007 72.6013 37.6207C72.6013 46.8608 67.9812 51.0409 55.441 51.4809ZM40.9207 28.3805C40.9207 8.58016 31.2405 -5.19301e-06 19.1403 -6.25084e-06C8.1401 -7.21251e-06 -5.60537e-05 7.48013 -5.69962e-05 18.2603C-5.79194e-05 28.8205 8.14009 37.4007 22.8804 37.6207C22.8804 46.8608 18.2603 51.0409 5.72005 51.4809L5.72005 64.4612L8.14009 64.4612C27.9405 64.4612 40.9207 51.0409 40.9207 28.3805Z" fill="#DDE8F7"/>
</svg>
