<svg width="91" height="65" viewBox="0 0 91 65" fill="none" xmlns="http://www.w3.org/2000/svg">
<path d="M35.3686 12.9802V0H32.9486C13.1482 0 0.167969 13.4202 0.167969 36.0807C0.167969 55.881 9.84815 64.4612 21.9484 64.4612C32.9486 64.4612 41.0887 56.981 41.0887 46.2008C41.0887 35.6406 32.9486 27.0605 18.2083 26.8405C18.2083 17.6003 22.8284 13.4202 35.3686 12.9802ZM49.8889 36.0807C49.8889 55.881 59.5691 64.4612 71.6693 64.4612C82.6695 64.4612 90.8096 56.981 90.8096 46.2008C90.8096 35.6406 82.6695 27.0605 67.9292 26.8405C67.9292 17.6003 72.5493 13.4202 85.0895 12.9802V0H82.6695C62.8691 0 49.8889 13.4202 49.8889 36.0807Z" fill="#DDE8F7"/>
</svg>
