<svg width="92" height="65" viewBox="0 0 92 65" fill="none" xmlns="http://www.w3.org/2000/svg">
<path opacity="0.5" d="M35.7006 12.9802V0H33.2806C13.4802 0 0.5 13.4202 0.5 36.0807C0.5 55.881 10.1802 64.4612 22.2804 64.4612C33.2806 64.4612 41.4207 56.981 41.4207 46.2008C41.4207 35.6406 33.2806 27.0605 18.5403 26.8405C18.5403 17.6003 23.1604 13.4202 35.7006 12.9802ZM50.2209 36.0807C50.2209 55.881 59.9011 64.4612 72.0013 64.4612C83.0015 64.4612 91.1417 56.981 91.1417 46.2008C91.1417 35.6406 83.0015 27.0605 68.2612 26.8405C68.2612 17.6003 72.8813 13.4202 85.4216 12.9802V0H83.0015C63.2011 0 50.2209 13.4202 50.2209 36.0807Z" fill="white"/>
</svg>
